# xmcd
#
# Track frame offsets: 
#        150
#        17104
#        38427
#        66377
#        86805
#        110069
#        142480
#
# Disc length: 2288 seconds
#
# Revision: 1
# Processed by: cddbd v1.5.2PL0 Copyright (c) Steve Scherf et al.
# Submitted via: ExactAudioCopy v0.99pb4
#
DISCID=6608ee07
DTITLE=Buddy Emmons With Lenny Breau - Minors Aloud
DYEAR=1978
DGENRE=Jazz Rock
TTITLE0=Minors Aloud
TTITLE1=Compared To What
TTITLE2=Killer Joe
TTITLE3=Long Way To Go
TTITLE4=Secret Love
TTITLE5=Scrapple From The Apple
TTITLE6=On A Bach Bouree
EXTD=YEAR: 1978
EXTT0=
EXTT1=
EXTT2=
EXTT3=
EXTT4=
EXTT5=
EXTT6=
PLAYORDER=
